<mxfile host="app.diagrams.net" modified="2020-12-20T03:22:38.829Z" agent="5.0 (Macintosh; Intel Mac OS X 11_0_1) AppleWebKit/537.36 (KHTML, like Gecko) Chrome/87.0.4280.88 Safari/537.36" etag="dXIWt9agVo_8dyP-cDU3" version="14.1.1" type="github">
  <diagram id="20s6yQ6Q4HwV_ViorbRm" name="Page-1">
    <mxGraphModel dx="1394" dy="616" grid="1" gridSize="10" guides="1" tooltips="1" connect="1" arrows="1" fold="1" page="1" pageScale="1" pageWidth="850" pageHeight="1100" math="0" shadow="0">
      <root>
        <mxCell id="0" />
        <mxCell id="1" parent="0" />
        <mxCell id="keT3I3WT07rfApox7gBQ-3" value="&lt;font style=&quot;font-size: 28px&quot;&gt;html&lt;/font&gt;" style="rounded=0;whiteSpace=wrap;html=1;align=left;verticalAlign=top;" vertex="1" parent="1">
          <mxGeometry x="-730" y="80" width="630" height="910" as="geometry" />
        </mxCell>
        <mxCell id="keT3I3WT07rfApox7gBQ-4" value="&lt;font style=&quot;font-size: 28px&quot;&gt;head&lt;/font&gt;" style="rounded=0;whiteSpace=wrap;html=1;align=left;verticalAlign=top;" vertex="1" parent="1">
          <mxGeometry x="-700" y="140" width="570" height="210" as="geometry" />
        </mxCell>
        <mxCell id="keT3I3WT07rfApox7gBQ-5" value="&lt;font style=&quot;font-size: 28px&quot;&gt;body&lt;/font&gt;" style="rounded=0;whiteSpace=wrap;html=1;align=left;verticalAlign=top;" vertex="1" parent="1">
          <mxGeometry x="-700" y="370" width="570" height="580" as="geometry" />
        </mxCell>
        <mxCell id="keT3I3WT07rfApox7gBQ-8" value="&lt;font style=&quot;font-size: 20px&quot;&gt;h1&lt;br&gt;&lt;br&gt;My home page&lt;/font&gt;" style="rounded=0;whiteSpace=wrap;html=1;align=left;" vertex="1" parent="1">
          <mxGeometry x="-665" y="430" width="500" height="120" as="geometry" />
        </mxCell>
        <mxCell id="keT3I3WT07rfApox7gBQ-9" value="&lt;font style=&quot;font-size: 20px&quot;&gt;title&lt;br&gt;&lt;br&gt;My home page&lt;/font&gt;" style="rounded=0;whiteSpace=wrap;html=1;align=left;" vertex="1" parent="1">
          <mxGeometry x="-665" y="200" width="500" height="120" as="geometry" />
        </mxCell>
        <mxCell id="keT3I3WT07rfApox7gBQ-10" value="&lt;font style=&quot;font-size: 20px&quot;&gt;p&lt;br&gt;&lt;br&gt;Hello, I am Aiden...&lt;/font&gt;" style="rounded=0;whiteSpace=wrap;html=1;align=left;" vertex="1" parent="1">
          <mxGeometry x="-665" y="590" width="500" height="120" as="geometry" />
        </mxCell>
        <mxCell id="keT3I3WT07rfApox7gBQ-11" value="&lt;font style=&quot;font-size: 20px&quot;&gt;p&lt;br&gt;&lt;br&gt;I also wrote a book! Read it&amp;nbsp;&lt;/font&gt;" style="rounded=0;whiteSpace=wrap;html=1;align=left;" vertex="1" parent="1">
          <mxGeometry x="-665" y="730" width="500" height="180" as="geometry" />
        </mxCell>
        <mxCell id="keT3I3WT07rfApox7gBQ-12" value="&lt;font style=&quot;font-size: 18px&quot;&gt;a&lt;br&gt;&lt;div style=&quot;text-align: center&quot;&gt;&lt;span&gt;here&lt;/span&gt;&lt;/div&gt;&lt;/font&gt;" style="rounded=1;whiteSpace=wrap;html=1;align=left;verticalAlign=top;" vertex="1" parent="1">
          <mxGeometry x="-400" y="810" width="120" height="60" as="geometry" />
        </mxCell>
      </root>
    </mxGraphModel>
  </diagram>
</mxfile>
